{
    "accessors": [
        {
            "bufferView": 0,
            "byteOffset": 0,
            "componentType": 5126,
            "count": 24,
            "max": [
                1.0000004768371582,
                1.0000003576278687,
                1.0
            ],
            "min": [
                -1.0000003576278687,
                -1.0000005960464478,
                -1.0
            ],
            "name": "accessor_buffer_Cube_POSITION_0",
            "type": "VEC3"
        },
        {
            "bufferView": 1,
            "byteOffset": 0,
            "componentType": 5126,
            "count": 24,
            "max": [
                1.0,
                1.0,
                1.0
            ],
            "min": [
                -1.0,
                -1.0,
                -1.0
            ],
            "name": "accessor_buffer_Cube_NORMAL_0",
            "type": "VEC3"
        },
        {
            "bufferView": 2,
            "byteOffset": 0,
            "componentType": 5126,
            "count": 24,
            "max": [
                1.0,
                1.0
            ],
            "min": [
                0.0,
                0.0
            ],
            "name": "accessor_buffer_Cube_TEXCOORD_0_0",
            "type": "VEC2"
        },
        {
            "bufferView": 3,
            "byteOffset": 0,
            "componentType": 5123,
            "count": 36,
            "max": [
                23
            ],
            "min": [
                0
            ],
            "name": "accessor_buffer_Cube_0",
            "type": "SCALAR"
        },
        {
            "bufferView": 4,
            "byteOffset": 0,
            "componentType": 5121,
            "count": 24,
            "max": [
                1,
                1,
                0,
                0
            ],
            "min": [
                0,
                0,
                0,
                0
            ],
            "name": "accessor_buffer_Cube_skin_0",
            "type": "VEC4"
        },
        {
            "bufferView": 4,
            "byteOffset": 16,
            "componentType": 5126,
            "count": 24,
            "max": [
                0.8971413373947144,
                0.4291970431804657,
                0.0,
                0.0
            ],
            "min": [
                0.5708029270172119,
                0.10285863280296326,
                0.0,
                0.0
            ],
            "name": "accessor_buffer_Cube_skin_1",
            "type": "VEC4"
        },
        {
            "bufferView": 5,
            "byteOffset": 0,
            "componentType": 5126,
            "count": 250,
            "max": [
                10.374999999999988
            ],
            "min": [
                0
            ],
            "name": "accessor_buffer_Armature_ArmatureAction_time_0",
            "type": "SCALAR"
        },
        {
            "bufferView": 6,
            "byteOffset": 0,
            "componentType": 5126,
            "count": 250,
            "max": [
                2.9802322387695312e-08,
                1.0000001192092896,
                0.0
            ],
            "min": [
                -2.9802322387695312e-08,
                0.9999998807907104,
                0.0
            ],
            "name": "accessor_buffer_Bone.001_Armature_ArmatureAction_0",
            "type": "VEC3"
        },
        {
            "bufferView": 7,
            "byteOffset": 0,
            "componentType": 5126,
            "count": 250,
            "max": [
                0.0,
                0.0,
                0.7862852811813354,
                1.0
            ],
            "min": [
                0.0,
                0.0,
                0.0,
                0.6178637146949768
            ],
            "name": "accessor_buffer_Bone.001_Armature_ArmatureAction_1",
            "type": "VEC4"
        },
        {
            "bufferView": 8,
            "byteOffset": 0,
            "componentType": 5126,
            "count": 250,
            "max": [
                0.0,
                0.0,
                0.0
            ],
            "min": [
                0.0,
                0.0,
                0.0
            ],
            "name": "accessor_buffer_Bone_Armature_ArmatureAction_0",
            "type": "VEC3"
        },
        {
            "bufferView": 9,
            "byteOffset": 0,
            "componentType": 5126,
            "count": 250,
            "max": [
                0.7071068286895752,
                0.2509857416152954,
                0.0,
                0.7071068286895752
            ],
            "min": [
                0.6610644459724426,
                0.0,
                -0.2509857416152954,
                0.6610644459724426
            ],
            "name": "accessor_buffer_Bone_Armature_ArmatureAction_1",
            "type": "VEC4"
        },
        {
            "bufferView": 10,
            "byteOffset": 0,
            "componentType": 5126,
            "count": 2,
            "max": [
                0.4683777391910553,
                0.883528470993042,
                0.0,
                0.0,
                0.0,
                0.0,
                -1.0,
                0.0,
                -0.883528470993042,
                0.4683777391910553,
                0.0,
                0.0,
                0.6658016443252563,
                0.7470023036003113,
                0.0,
                1.0
            ],
            "min": [
                0.4683777391910553,
                0.883528470993042,
                0.0,
                0.0,
                0.0,
                0.0,
                -1.0,
                0.0,
                -0.883528470993042,
                0.4683777391910553,
                0.0,
                0.0,
                0.6658016443252563,
                -0.2529976963996887,
                0.0,
                1.0
            ],
            "name": "accessor_buffer_IBM_Cube_skin_0",
            "type": "MAT4"
        }
    ],
    "animations": [
        {
            "channels": [
                {
                    "sampler": 0,
                    "target": {
                        "node": 3,
                        "path": "translation"
                    }
                },
                {
                    "sampler": 1,
                    "target": {
                        "node": 3,
                        "path": "rotation"
                    }
                },
                {
                    "sampler": 2,
                    "target": {
                        "node": 2,
                        "path": "translation"
                    }
                },
                {
                    "sampler": 3,
                    "target": {
                        "node": 2,
                        "path": "rotation"
                    }
                }
            ],
            "name": "Armature_ArmatureAction",
            "samplers": [
                {
                    "input": 6,
                    "interpolation": "LINEAR",
                    "output": 7
                },
                {
                    "input": 6,
                    "interpolation": "LINEAR",
                    "output": 8
                },
                {
                    "input": 6,
                    "interpolation": "LINEAR",
                    "output": 9
                },
                {
                    "input": 6,
                    "interpolation": "LINEAR",
                    "output": 10
                }
            ]
        }
    ],
    "asset": {
        "copyright": "",
        "generator": "blendergltf v1.1.0",
        "version": "2.0"
    },
    "bufferViews": [
        {
            "buffer": 0,
            "byteLength": 288,
            "byteOffset": 0,
            "byteStride": 12,
            "name": "bufferView_buffer_Cube_POSITION_0",
            "target": 34962
        },
        {
            "buffer": 0,
            "byteLength": 288,
            "byteOffset": 288,
            "byteStride": 12,
            "name": "bufferView_buffer_Cube_NORMAL_0",
            "target": 34962
        },
        {
            "buffer": 0,
            "byteLength": 192,
            "byteOffset": 576,
            "byteStride": 8,
            "name": "bufferView_buffer_Cube_TEXCOORD_0_0",
            "target": 34962
        },
        {
            "buffer": 0,
            "byteLength": 76,
            "byteOffset": 768,
            "name": "bufferView_buffer_Cube_0",
            "target": 34963
        },
        {
            "buffer": 0,
            "byteLength": 768,
            "byteOffset": 844,
            "byteStride": 32,
            "name": "bufferView_buffer_Cube_skin_0",
            "target": 34962
        },
        {
            "buffer": 0,
            "byteLength": 1000,
            "byteOffset": 1612,
            "byteStride": 4,
            "name": "bufferView_buffer_Armature_ArmatureAction_time_0"
        },
        {
            "buffer": 0,
            "byteLength": 3000,
            "byteOffset": 2612,
            "byteStride": 12,
            "name": "bufferView_buffer_Bone.001_Armature_ArmatureAction_0"
        },
        {
            "buffer": 0,
            "byteLength": 4000,
            "byteOffset": 5612,
            "byteStride": 16,
            "name": "bufferView_buffer_Bone.001_Armature_ArmatureAction_1"
        },
        {
            "buffer": 0,
            "byteLength": 3000,
            "byteOffset": 9612,
            "byteStride": 12,
            "name": "bufferView_buffer_Bone_Armature_ArmatureAction_0"
        },
        {
            "buffer": 0,
            "byteLength": 4000,
            "byteOffset": 12612,
            "byteStride": 16,
            "name": "bufferView_buffer_Bone_Armature_ArmatureAction_1"
        },
        {
            "buffer": 0,
            "byteLength": 128,
            "byteOffset": 16612,
            "byteStride": 64,
            "name": "bufferView_buffer_IBM_Cube_skin_0"
        }
    ],
    "buffers": [
        {
            "byteLength": 16740,
            "name": "buffer_cube",
            "uri": "data:application/octet-stream;base64,"
        }
    ],
    "materials": [
        {
            "doubleSided": false,
            "emissiveFactor": [
                0.0,
                0.0,
                0.0
            ],
            "name": "Material",
            "pbrMetallicRoughness": {
                "baseColorFactor": [
                    0.64000004529953,
                    0.64000004529953,
                    0.64000004529953,
                    1.0
                ],
                "metallicFactor": 0.0,
                "roughnessFactor": 1.0
            }
        }
    ],
    "meshes": [
        {
            "name": "Cube",
            "primitives": [
                {
                    "attributes": {
                        "JOINTS_0": 4,
                        "NORMAL": 1,
                        "POSITION": 0,
                        "TEXCOORD_0": 2,
                        "WEIGHTS_0": 5
                    },
                    "indices": 3,
                    "material": 0,
                    "mode": 4
                }
            ]
        }
    ],
    "nodes": [
        {
            "children": [
                2
            ],
            "name": "Armature",
            "rotation": [
                0.0,
                0.0,
                0.0,
                1.0
            ],
            "scale": [
                1.0,
                1.0,
                1.0
            ],
            "translation": [
                0.0,
                0.0,
                -0.9972482323646545
            ]
        },
        {
            "mesh": 0,
            "name": "Cube",
            "rotation": [
                -0.7071068286895752,
                0.0,
                0.0,
                0.7071068286895752
            ],
            "scale": [
                1.0,
                1.0,
                1.0
            ],
            "skin": 0,
            "translation": [
                0.0,
                -0.9692894816398621,
                0.0
            ]
        },
        {
            "children": [
                3
            ],
            "name": "Armature_Bone",
            "rotation": [
                0.7071068286895752,
                0.0,
                0.0,
                0.7071068286895752
            ],
            "scale": [
                1.0,
                1.0,
                1.0
            ],
            "translation": [
                0.0,
                0.0,
                0.0
            ]
        },
        {
            "children": [
                1
            ],
            "name": "Armature_Bone.001",
            "rotation": [
                0.0,
                0.0,
                0.0,
                1.0
            ],
            "scale": [
                1.0,
                1.0,
                1.0
            ],
            "translation": [
                0.0,
                1.0,
                0.0
            ]
        },
        {
            "children": [
                0
            ],
            "matrix": [
                -1.0,
                0.0,
                0.0,
                0.0,
                0.0,
                0.0,
                1.0,
                0.0,
                0.0,
                1.0,
                0.0,
                0.0,
                0.0,
                0.0,
                0.0,
                1.0
            ],
            "name": "Scene_root"
        }
    ],
    "scene": 0,
    "scenes": [
        {
            "extras": {
                "background_color": [
                    0.05087608844041824,
                    0.05087608844041824,
                    0.05087608844041824
                ],
                "frames_per_second": 24
            },
            "name": "Scene",
            "nodes": [
                4
            ]
        }
    ],
    "skins": [
        {
            "inverseBindMatrices": 11,
            "joints": [
                2,
                3
            ],
            "name": "Cube",
            "skeleton": 2
        }
    ]
}
